<?xml version="1.0" encoding="UTF-8" standalone="no"?>
<svg
   xmlns:osb="http://www.openswatchbook.org/uri/2009/osb"
   xmlns:dc="http://purl.org/dc/elements/1.1/"
   xmlns:cc="http://creativecommons.org/ns#"
   xmlns:rdf="http://www.w3.org/1999/02/22-rdf-syntax-ns#"
   xmlns:svg="http://www.w3.org/2000/svg"
   xmlns="http://www.w3.org/2000/svg"
   xmlns:xlink="http://www.w3.org/1999/xlink"
   xmlns:sodipodi="http://sodipodi.sourceforge.net/DTD/sodipodi-0.dtd"
   xmlns:inkscape="http://www.inkscape.org/namespaces/inkscape"
   inkscape:export-ydpi="100.16145"
   inkscape:export-xdpi="100.16145"
   inkscape:export-filename="C:\Users\Metallian\Desktop\Optimus Logo\optimus-avocats.png"
   inkscape:version="1.0 (4035a4fb49, 2020-05-01)"
   sodipodi:docname="logo.svg"
   id="svg863"
   xml:space="preserve"
   height="150"
   width="150"
   y="0px"
   x="0px"
   version="1.1"><metadata
   id="metadata869"><rdf:RDF><cc:Work
       rdf:about=""><dc:format>image/svg+xml</dc:format><dc:type
         rdf:resource="http://purl.org/dc/dcmitype/StillImage" /><dc:title></dc:title></cc:Work></rdf:RDF></metadata><defs
   id="defs867"><linearGradient
     id="linearGradient1209"><stop
       style="stop-color:#ebf1ff;stop-opacity:1"
       offset="0.0000000"
       id="stop1201" /><stop
       style="stop-color:#ebf1ff;stop-opacity:1"
       offset="0.03520972"
       id="stop1203" /><stop
       style="stop-color:#5e79b0;stop-opacity:1"
       offset="0.44162294"
       id="stop1205" /><stop
       style="stop-color:#5e79b0;stop-opacity:1"
       offset="1.0000000"
       id="stop1207" /></linearGradient><linearGradient
     id="linearGradient1157"><stop
       id="stop1149"
       offset="0.0000000"
       style="stop-color:#d3e9ff;stop-opacity:1.0000000;" /><stop
       id="stop1151"
       offset="0.0373642"
       style="stop-color:#ebf1ff;stop-opacity:0" /><stop
       id="stop1153"
       offset="0.27506858"
       style="stop-color:#4074ae;stop-opacity:1.0000000;" /><stop
       id="stop1155"
       offset="1.0000000"
       style="stop-color:#5e79b0;stop-opacity:1" /></linearGradient><linearGradient
     id="linearGradient1112"><stop
       id="stop1104"
       offset="0.0000000"
       style="stop-color:#ebf1ff;stop-opacity:1" /><stop
       id="stop1106"
       offset="0.00000001"
       style="stop-color:#cbe1f4;stop-opacity:1" /><stop
       id="stop1108"
       offset="0.4064132"
       style="stop-color:#5e79b0;stop-opacity:1" /><stop
       id="stop1110"
       offset="1.0000000"
       style="stop-color:#5e79b0;stop-opacity:1" /></linearGradient><linearGradient
     id="linearGradient3962"><stop
       style="stop-color:#d3e9ff;stop-opacity:1.0000000;"
       offset="0"
       id="stop1079" /><stop
       style="stop-color:#d3e9ff;stop-opacity:1.0000000;"
       offset="0.22226167"
       id="stop1081" /><stop
       style="stop-color:#4074ae;stop-opacity:1.0000000;"
       offset="0.50489503"
       id="stop1083" /><stop
       style="stop-color:#36486c;stop-opacity:1.0000000;"
       offset="1"
       id="stop1085" /></linearGradient><linearGradient
     id="linearGradient1054-1"
     inkscape:collect="always"><stop
       id="stop1050"
       offset="0"
       style="stop-color:#3a3a6c;stop-opacity:1;" /><stop
       id="stop1052"
       offset="1"
       style="stop-color:#3a3a6c;stop-opacity:0;" /></linearGradient><linearGradient
     id="linearGradient3962-9"><stop
       id="stop1037"
       offset="0"
       style="stop-color:#d3e9ff;stop-opacity:1.0000000;" /><stop
       id="stop1039"
       offset="0.22226167"
       style="stop-color:#d3e9ff;stop-opacity:1.0000000;" /><stop
       id="stop1041"
       offset="0.50489503"
       style="stop-color:#4074ae;stop-opacity:1.0000000;" /><stop
       id="stop1043"
       offset="1"
       style="stop-color:#36486c;stop-opacity:1.0000000;" /></linearGradient><linearGradient
     osb:paint="solid"
     id="linearGradient3963"><stop
       id="stop3961"
       offset="0"
       style="stop-color:#5e79b0;stop-opacity:1;" /></linearGradient><linearGradient
     osb:paint="solid"
     id="linearGradient2469"><stop
       id="stop2467"
       offset="0"
       style="stop-color:#3a3a6c;stop-opacity:1;" /></linearGradient><radialGradient
     xlink:href="#linearGradient3962-8"
     r="29.993349"
     inkscape:collect="always"
     id="radialGradient3968"
     gradientUnits="userSpaceOnUse"
     gradientTransform="matrix(3.4899409,0,0,3.4900176,-11.623264,-6.9166454)"
     fy="15.716079"
     fx="18.247644"
     cy="15.716079"
     cx="18.247644" /><linearGradient
     id="linearGradient3962-8"><stop
       style="stop-color:#d3e9ff;stop-opacity:1.0000000;"
       offset="0.0000000"
       id="stop3964" /><stop
       style="stop-color:#d3e9ff;stop-opacity:1.0000000;"
       offset="0.15517241"
       id="stop4134" /><stop
       style="stop-color:#4074ae;stop-opacity:1.0000000;"
       offset="0.75000000"
       id="stop4346" /><stop
       style="stop-color:#36486c;stop-opacity:1.0000000;"
       offset="1.0000000"
       id="stop3966" /></linearGradient><radialGradient
     xlink:href="#linearGradient4126"
     r="43.526714"
     inkscape:collect="always"
     id="radialGradient4132"
     gradientUnits="userSpaceOnUse"
     gradientTransform="matrix(3.4899409,0,0,3.4900176,-11.623264,-6.9166454)"
     fy="12.142302"
     fx="15.601279"
     cy="12.142302"
     cx="15.601279" /><linearGradient
     id="linearGradient4126"><stop
       style="stop-color:#ffffff;stop-opacity:1.0000000;"
       offset="0.0000000"
       id="stop4128" /><stop
       style="stop-color:#ffffff;stop-opacity:0.16494845;"
       offset="1.0000000"
       id="stop4130" /></linearGradient><linearGradient
     y2="21.041553"
     y1="30.057165"
     xlink:href="#linearGradient6001"
     x2="-22.252472"
     x1="-25.176178"
     inkscape:collect="always"
     id="linearGradient6007"
     gradientUnits="userSpaceOnUse"
     gradientTransform="matrix(4.4899174,-6.5319733e-8,5.0772537e-8,3.489979,179.13018,-41.27624)" /><linearGradient
     inkscape:collect="always"
     id="linearGradient6001"><stop
       style="stop-color:#ffffff;stop-opacity:1;"
       offset="0"
       id="stop6003" /><stop
       style="stop-color:#ffffff;stop-opacity:0;"
       offset="1"
       id="stop6005" /></linearGradient><linearGradient
     y2="22.661524"
     y1="30.057165"
     xlink:href="#linearGradient6001"
     x2="-22.113543"
     x1="-25.176178"
     inkscape:collect="always"
     id="linearGradient6011"
     gradientUnits="userSpaceOnUse"
     gradientTransform="matrix(4.4899172,0,0,3.489979,89.196307,52.724703)" /><radialGradient
     xlink:href="#linearGradient6001"
     r="6.7175145"
     inkscape:collect="always"
     id="radialGradient5987"
     gradientUnits="userSpaceOnUse"
     fy="12.493138"
     fx="12.071323"
     cy="12.493138"
     cx="12.071323" /><linearGradient
     y2="22.661524"
     y1="28.337734"
     xlink:href="#linearGradient6001"
     x2="-22.113543"
     x1="-22.822565"
     inkscape:collect="always"
     id="linearGradient6015"
     gradientUnits="userSpaceOnUse"
     gradientTransform="matrix(4.4899167,1.3469781e-8,-1.0469959e-8,3.4899783,6.7301937,-135.82548)" /><linearGradient
     y2="21.336346"
     y1="15.649428"
     xlink:href="#linearGradient3962-8"
     x2="-21.962101"
     x1="-21.658581"
     inkscape:collect="always"
     id="linearGradient6019"
     gradientUnits="userSpaceOnUse"
     gradientTransform="matrix(4.3873142,0,0,3.4102139,83.128636,35.298661)" /><radialGradient
     xlink:href="#linearGradient6001"
     r="6.7175145"
     inkscape:collect="always"
     id="radialGradient5983"
     gradientUnits="userSpaceOnUse"
     fy="12.493138"
     fx="12.071323"
     cy="12.493138"
     cx="12.071323" /><radialGradient
     xlink:href="#linearGradient6001"
     r="6.7175145"
     inkscape:collect="always"
     id="radialGradient5985"
     gradientUnits="userSpaceOnUse"
     fy="12.493138"
     fx="12.071323"
     cy="12.493138"
     cx="12.071323" /><radialGradient
     xlink:href="#linearGradient6001"
     r="6.7175145"
     inkscape:collect="always"
     id="radialGradient5989"
     gradientUnits="userSpaceOnUse"
     fy="12.493138"
     fx="12.071323"
     cy="12.493138"
     cx="12.071323" /><linearGradient
     gradientUnits="userSpaceOnUse"
     y2="-12.235352"
     x2="135.03906"
     y1="-12.235352"
     x1="-0.5"
     id="linearGradient2471"
     xlink:href="#linearGradient2469"
     inkscape:collect="always" /><radialGradient
     gradientUnits="userSpaceOnUse"
     gradientTransform="matrix(1,0,0,0.19202927,0,-14.795175)"
     r="121.66017"
     fy="-18.311523"
     fx="113.67328"
     cy="-18.311523"
     cx="113.67328"
     id="radialGradient1058"
     xlink:href="#linearGradient1054-1"
     inkscape:collect="always" /><radialGradient
     gradientUnits="userSpaceOnUse"
     gradientTransform="matrix(0.99987038,-0.01790135,0.01341205,0.92607573,0.92312801,32.995373)"
     r="67.769531"
     fy="-68.869751"
     fx="-4.2934675"
     cy="-68.869751"
     cx="-4.2934675"
     id="radialGradient1199"
     xlink:href="#linearGradient1209"
     inkscape:collect="always" /></defs><sodipodi:namedview
   inkscape:document-rotation="0"
   fit-margin-bottom="0"
   fit-margin-right="0"
   fit-margin-left="0"
   fit-margin-top="0"
   inkscape:current-layer="svg863"
   inkscape:window-maximized="1"
   inkscape:window-y="-4"
   inkscape:window-x="1912"
   inkscape:cy="111.78653"
   inkscape:cx="131.86884"
   inkscape:zoom="1.9790356"
   showgrid="false"
   id="namedview865"
   inkscape:window-height="1017"
   inkscape:window-width="1920"
   inkscape:pageshadow="2"
   inkscape:pageopacity="0"
   guidetolerance="10"
   gridtolerance="10"
   objecttolerance="10"
   borderopacity="1"
   bordercolor="#666666"
   pagecolor="#ffffff" />


<path
   inkscape:connector-curvature="0"
   style="fill:url(#radialGradient3968);fill-opacity:1;fill-rule:nonzero;stroke:#39396c;stroke-width:2.75071;stroke-miterlimit:4;stroke-dasharray:none;stroke-opacity:1"
   id="path3214"
   d="m 141.79571,75.047228 c 0,37.376832 -30.30036,67.676872 -67.671904,67.676872 -37.374986,0 -67.6736268,-30.30038 -67.6736268,-67.676872 0,-37.374957 30.2986408,-67.6718842 67.6736268,-67.6718842 37.371544,0 67.671904,30.2969272 67.671904,67.6718842 z" /><g
   transform="matrix(3.4284546,0,0,3.4284546,-11.200707,-6.1037984)"
   style="opacity:1;fill:#204a87;fill-opacity:0.71345;fill-rule:nonzero;stroke:none;stroke-miterlimit:4"
   id="g4136"><g
     style="fill:#204a87"
     id="g4138"><g
       style="fill:#204a87"
       id="g4142"><path
         inkscape:connector-curvature="0"
         style="fill:#204a87"
         id="path4144"
         d="m 44.0713,20.7144 c 0,0.2627 0,0 0,0 l -0.5449,0.6172 c -0.334,-0.3936 -0.709,-0.7246 -1.0898,-1.0703 l -0.8359,0.123 -0.7637,-0.8633 v 1.0684 l 0.6543,0.4951 0.4355,0.4932 0.582,-0.6582 c 0.1465,0.2744 0.291,0.5488 0.4365,0.8232 v 0.8223 l -0.6553,0.7402 -1.1992,0.8232 -0.9082,0.9063 -0.582,-0.6602 0.291,-0.7402 -0.5811,-0.6582 -0.9814,-2.0977 -0.8359,-0.9453 -0.2188,0.2461 0.3281,1.1934 0.6172,0.6992 c 0.3525,1.0176 0.7012,1.9902 1.1641,2.9629 0.7178,0 1.3945,-0.0762 2.1074,-0.166 v 0.5762 l -0.8721,2.1392 -0.7998,0.9043 -0.6543,1.4004 c 0,0.7676 0,1.5352 0,2.3027 l 0.2188,0.9063 -0.3633,0.4102 -0.8008,0.4941 -0.8359,0.6992 0.6914,0.7813 -0.9453,0.8242 0.1816,0.5332 -1.418,1.6055 h -0.9443 l -0.7998,0.4941 H 33.6396 V 38.2814 L 33.4228,36.963 c -0.2813,-0.8262 -0.5742,-1.6465 -0.8721,-2.4668 0,-0.6055 0.0361,-1.2051 0.0723,-1.8105 l 0.3643,-0.8223 -0.5098,-0.9883 0.0371,-1.3574 -0.6914,-0.7813 0.3457,-1.1309 -0.5625,-0.6382 H 30.624 l -0.3271,-0.3701 -0.9814,0.6177 -0.3994,-0.4536 -0.9092,0.7817 c -0.6172,-0.6997 -1.2354,-1.3989 -1.8535,-2.0981 l -0.7266,-1.7285 0.6543,-0.9863 -0.3633,-0.4111 0.7988,-1.8936 c 0.6563,-0.8164 1.3418,-1.5996 2.0352,-2.3857 l 1.2363,-0.3291 1.3809,-0.1641 0.9453,0.2471 1.3447,1.3564 0.4727,-0.5342 0.6533,-0.082 1.2363,0.4111 h 0.9453 l 0.6543,-0.5762 0.291,-0.4111 -0.6553,-0.4111 -1.0908,-0.082 c -0.3027,-0.4199 -0.584,-0.8613 -0.9434,-1.2344 l -0.3643,0.1641 -0.1455,1.0703 -0.6543,-0.7402 -0.1445,-0.8242 -0.7266,-0.5742 h -0.292 l 0.7275,0.8223 -0.291,0.7402 -0.5811,0.1641 0.3633,-0.7402 -0.6553,-0.3281 -0.5801,-0.6582 -1.0918,0.2461 -0.1445,0.3281 -0.6543,0.4121 -0.3633,0.9053 -0.9082,0.4521 -0.4004,-0.4521 h -0.4355 v -1.4814 l 0.9453,-0.4941 h 0.7266 l -0.1465,-0.5752 -0.5801,-0.5762 0.9805,-0.2061 0.5449,-0.6162 0.4355,-0.7412 h 0.8008 l -0.2188,-0.5752 0.5098,-0.3291 v 0.6582 l 1.0898,0.2461 1.0898,-0.9043 0.0732,-0.4121 0.9443,-0.6577 c -0.3418,0.0425 -0.6836,0.0737 -1.0176,0.1646 V 9.9766 L 34.2213,9.1538 H 33.858 l -0.7984,0.7402 -0.2188,0.4116 0.2188,0.5767 -0.3643,0.9863 -0.5811,-0.3291 -0.5078,-0.5752 -0.8008,0.5752 -0.291,-1.3159 1.3809,-0.9048 V 8.8247 l 0.873,-0.5757 1.3809,-0.3296 0.9453,0.3296 1.7441,0.3291 -0.4355,0.4932 H 35.458 l 0.9453,0.9873 0.7266,-0.8223 0.2207,-0.3618 c 0,0 2.7871,2.498 4.3799,5.2305 1.5928,2.7334 2.3408,5.9551 2.3408,6.6094 z" /></g></g><g
     style="fill:#204a87"
     id="g4146"><g
       style="fill:#204a87"
       id="g4150"><path
         inkscape:connector-curvature="0"
         style="fill:#204a87"
         id="path4152"
         d="m 26.0703,9.2363 -0.0732,0.4932 0.5098,0.3291 0.8711,-0.5757 -0.4355,-0.4937 -0.582,0.3296 -0.29,-0.0825" /></g></g><g
     style="fill:#204a87"
     id="g4154"><g
       style="fill:#204a87"
       id="g4158"><path
         inkscape:connector-curvature="0"
         style="fill:#204a87"
         id="path4160"
         d="m 26.8701,5.8633 -1.8906,-0.7407 -2.1797,0.2466 -2.6904,0.7402 -0.5088,0.4941 1.6719,1.1514 v 0.6582 l -0.6543,0.6582 0.873,1.729 0.5801,-0.3301 0.7285,-1.1514 c 1.123,-0.3472 2.1299,-0.7407 3.1973,-1.2344 l 0.873,-2.2212" /></g></g><g
     style="fill:#204a87"
     id="g4162"><g
       style="fill:#204a87"
       id="g4166"><path
         inkscape:connector-curvature="0"
         style="fill:#204a87"
         id="path4168"
         d="m 28.833,12.7749 -0.291,-0.7412 -0.5098,0.165 0.1465,0.9043 0.6543,-0.3281" /></g></g><g
     style="fill:#204a87"
     id="g4170"><g
       style="fill:#204a87"
       id="g4174"><path
         inkscape:connector-curvature="0"
         style="fill:#204a87"
         id="path4176"
         d="m 29.123,12.6089 -0.1455,0.9883 0.7998,-0.165 0.5811,-0.5752 -0.5088,-0.4941 C 29.6787,11.9078 29.4824,11.483 29.2685,11.0465 H 28.833 v 0.4932 l 0.29,0.3291 v 0.7402" /></g></g><g
     style="fill:#204a87"
     id="g4178"><g
       style="fill:#204a87"
       id="g4182"><path
         inkscape:connector-curvature="0"
         style="fill:#204a87"
         id="path4184"
         d="m 18.3652,28.2422 -0.582,-1.1523 -1.0903,-0.2466 -0.5815,-1.5625 -1.4536,0.1641 -1.2354,-0.9043 -1.3091,1.1514 v 0.1816 c -0.396,-0.1143 -0.8828,-0.1299 -1.2354,-0.3467 l -0.291,-0.8223 v -0.9053 l -0.8721,0.082 c 0.0728,-0.5762 0.145,-1.1514 0.2183,-1.7275 H 9.4238 L 8.9155,22.812 8.4062,23.0581 7.6791,22.6479 7.6063,21.7426 7.7518,20.7553 8.8426,19.933 h 0.8721 l 0.145,-0.4941 1.0903,0.2461 0.7998,0.9883 0.1455,-1.6465 1.3813,-1.1514 0.5088,-1.2344 1.0176,-0.4111 0.5815,-0.8223 1.3081,-0.248 0.6548,-0.9863 c -0.6543,0 -1.3086,0 -1.9629,0 l 1.2358,-0.5762 h 0.8716 l 1.2363,-0.4121 0.1455,-0.4922 -0.4365,-0.4121 -0.5088,-0.165 0.1455,-0.4932 -0.3633,-0.7402 -0.8726,0.3281 0.1455,-0.6577 -1.0176,-0.5762 -0.7993,1.3979 0.0723,0.4941 -0.7993,0.3301 -0.5093,1.0693 -0.2178,-0.9873 -1.3813,-0.5762 -0.2183,-0.7402 1.8174,-1.0703 0.7998,-0.7402 0.0728,-0.9048 -0.436,-0.2471 -0.5815,-0.0825 -0.3633,0.9053 c 0,0 -0.6079,0.1191 -0.7642,0.1577 -1.9961,1.8394 -6.0293,5.8101 -6.9663,13.3062 0.0371,0.1738 0.6792,1.1816 0.6792,1.1816 l 1.5264,0.9043 1.5264,0.4121 0.6548,0.8232 1.0171,0.7402 0.5815,-0.082 0.436,0.1963 v 0.1328 l -0.5811,1.563 -0.4365,0.6582 0.1455,0.3301 -0.3633,1.2324 1.3086,2.3867 1.3081,1.1523 0.582,0.8223 -0.0732,1.7285 0.4365,0.9863 -0.4365,1.8926 c 0,0 -0.0342,-0.0117 0.0215,0.1777 0.0562,0.1895 2.3291,1.4512 2.4736,1.3438 0.144,-0.1094 0.2671,-0.2051 0.2671,-0.2051 l -0.145,-0.4102 0.5811,-0.5762 0.2183,-0.5762 0.9453,-0.3301 0.7266,-1.8105 -0.2178,-0.4922 0.5078,-0.7402 1.0908,-0.248 0.582,-1.3164 -0.1455,-1.6445 0.8721,-1.2344 0.1455,-1.2344 C 20.7331,29.4607 19.5495,28.8513 18.365,28.242" /></g></g><g
     style="fill:#204a87"
     id="g4186"><g
       style="fill:#204a87"
       id="g4190"><path
         inkscape:connector-curvature="0"
         style="fill:#204a87"
         id="path4192"
         d="m 16.7656,9.5649 0.7266,0.4937 h 0.582 V 9.4829 l -0.7266,-0.3291 -0.582,0.4111" /></g></g><g
     style="fill:#204a87"
     id="g4194"><g
       style="fill:#204a87"
       id="g4198"><path
         inkscape:connector-curvature="0"
         style="fill:#204a87"
         id="path4200"
         d="M 14.876,8.9072 14.5122,9.812 h 0.7271 L 15.6031,8.9892 C 15.9166,8.7675 16.2286,8.5444 16.5479,8.331 l 0.7271,0.2471 c 0.4844,0.3291 0.9688,0.6582 1.4536,0.9868 L 19.4561,8.9072 18.6558,8.5781 18.292,7.8374 16.9111,7.6728 16.8383,7.2612 16.184,7.4262 15.8936,8.002 15.5298,7.2613 l -0.145,0.3291 0.0728,0.8228 -0.5816,0.494" /></g></g><g
     style="fill:#204a87"
     id="g4202"><g
       style="opacity:0.75;fill:#204a87"
       id="g4204"><path
         inkscape:connector-curvature="0"
         style="fill:#204a87"
         id="path4206"
         d="" /></g><g
       style="fill:#204a87"
       id="g4208"><path
         inkscape:connector-curvature="0"
         style="fill:#204a87"
         id="path4210"
         d="" /></g></g><g
     style="fill:#204a87"
     id="g4212"><g
       style="opacity:0.75;fill:#204a87"
       id="g4214"><path
         inkscape:connector-curvature="0"
         style="fill:#204a87"
         id="path4216"
         d="" /></g><g
       style="fill:#204a87"
       id="g4218"><path
         inkscape:connector-curvature="0"
         style="fill:#204a87"
         id="path4220"
         d="" /></g></g><g
     style="fill:#204a87"
     id="g4222"><g
       style="fill:#204a87"
       id="g4226"><path
         inkscape:connector-curvature="0"
         style="fill:#204a87"
         id="path4228"
         d="M 17.4922,6.8496 17.856,6.521 18.5831,6.3564 c 0.498,-0.2422 0.998,-0.4053 1.5264,-0.5762 l -0.29,-0.4937 -0.9385,0.1348 -0.4434,0.4419 -0.731,0.106 -0.6499,0.3052 -0.3159,0.1528 -0.1929,0.2583 0.9443,0.1641" /></g></g><g
     style="fill:#204a87"
     id="g4230"><g
       style="fill:#204a87"
       id="g4234"><path
         inkscape:connector-curvature="0"
         style="fill:#204a87"
         id="path4236"
         d="m 18.7285,14.6665 0.4365,-0.6582 -0.6548,-0.4932 0.2183,1.1514" /></g></g></g><path
   inkscape:connector-curvature="0"
   style="opacity:0.395604;fill:none;fill-opacity:1;fill-rule:nonzero;stroke:url(#radialGradient4132);stroke-width:3.48998;stroke-miterlimit:4;stroke-opacity:1"
   id="path4122"
   d="m 138.35891,75.047365 c 0,35.478635 -28.76151,64.239865 -64.235168,64.239865 -35.476865,0 -64.23677,-28.76154 -64.23677,-64.239865 0,-35.476858 28.759905,-64.235164 64.23677,-64.235164 35.473658,0 64.235168,28.758306 64.235168,64.235164 z" /><ellipse
   ry="33.00666"
   rx="70.640434"
   cy="32.158382"
   cx="95.790466"
   transform="rotate(28.460691)"
   style="color:#000000;display:inline;overflow:visible;visibility:visible;opacity:1;fill:none;fill-opacity:1;fill-rule:evenodd;stroke:url(#linearGradient6007);stroke-width:3.48998;stroke-linecap:round;stroke-linejoin:round;stroke-miterlimit:4;stroke-dasharray:none;stroke-dashoffset:0;stroke-opacity:1;marker:none;marker-start:none;marker-mid:none;marker-end:none"
   inkscape:r_cy="true"
   inkscape:r_cx="true"
   id="path5991" /><ellipse
   ry="33.00666"
   rx="70.640427"
   cy="126.15936"
   cx="5.8564448"
   transform="rotate(-43.10261)"
   style="color:#000000;display:inline;overflow:visible;visibility:visible;opacity:1;fill:none;fill-opacity:1;fill-rule:evenodd;stroke:url(#linearGradient6011);stroke-width:3.48998;stroke-linecap:round;stroke-linejoin:round;stroke-miterlimit:4;stroke-dasharray:none;stroke-dashoffset:0;stroke-opacity:1;marker:none;marker-start:none;marker-mid:none;marker-end:none"
   inkscape:r_cy="true"
   inkscape:r_cx="true"
   id="path6009" /><g
   transform="matrix(-3.6497227,2.6776902,2.6776902,3.6497227,112.67762,-84.198604)"
   inkscape:r_cy="true"
   inkscape:r_cx="true"
   id="g4933"><circle
     r="6.7175145"
     cy="12.493138"
     cx="12.071323"
     transform="translate(14.95026,22.93047)"
     style="color:#000000;display:inline;overflow:visible;visibility:visible;opacity:1;fill:url(#radialGradient5987);fill-opacity:1;fill-rule:evenodd;stroke:none;stroke-width:1;stroke-linecap:round;stroke-linejoin:round;stroke-miterlimit:4;stroke-dasharray:none;stroke-dashoffset:0;stroke-opacity:1;marker:none;marker-start:none;marker-mid:none;marker-end:none"
     inkscape:r_cy="true"
     inkscape:r_cx="true"
     id="path4935" /><circle
     r="6.7175145"
     cy="12.493138"
     cx="12.071323"
     transform="matrix(0.308271,0,0,0.308271,23.30035,31.57234)"
     style="color:#000000;display:inline;overflow:visible;visibility:visible;opacity:1;fill:#ffffff;fill-opacity:1;fill-rule:evenodd;stroke:none;stroke-width:1;stroke-linecap:round;stroke-linejoin:round;stroke-miterlimit:4;stroke-dasharray:none;stroke-dashoffset:0;stroke-opacity:1;marker:none;marker-start:none;marker-mid:none;marker-end:none"
     inkscape:r_cy="true"
     inkscape:r_cx="true"
     id="path4937" /></g><ellipse
   ry="33.006653"
   rx="70.640427"
   cy="-62.39085"
   cx="-76.609634"
   transform="rotate(-174.37239)"
   style="color:#000000;display:inline;overflow:visible;visibility:visible;opacity:1;fill:none;fill-opacity:1;fill-rule:evenodd;stroke:url(#linearGradient6015);stroke-width:3.48998;stroke-linecap:round;stroke-linejoin:round;stroke-miterlimit:4;stroke-dasharray:none;stroke-dashoffset:0;stroke-opacity:1;marker:none;marker-start:none;marker-mid:none;marker-end:none"
   inkscape:r_cy="true"
   inkscape:r_cx="true"
   id="path6013" /><ellipse
   ry="32.252277"
   rx="69.026176"
   cy="107.05482"
   cx="1.6932738"
   transform="matrix(0.73014176,-0.6832957,0.68331862,0.7301203,0,0)"
   style="color:#000000;display:inline;overflow:visible;visibility:visible;opacity:1;fill:none;fill-opacity:1;fill-rule:evenodd;stroke:url(#linearGradient6019);stroke-width:3.48998;stroke-linecap:round;stroke-linejoin:round;stroke-miterlimit:4;stroke-dasharray:none;stroke-dashoffset:0;stroke-opacity:1;marker:none;marker-start:none;marker-mid:none;marker-end:none"
   inkscape:r_cy="true"
   inkscape:r_cx="true"
   id="path6017" /><g
   transform="matrix(-2.8138866,2.0644623,2.0644623,2.8138866,31.602358,-69.838216)"
   inkscape:r_cy="true"
   inkscape:r_cx="true"
   id="g5075"><circle
     r="6.7175145"
     cy="12.493138"
     cx="12.071323"
     transform="translate(14.95026,22.93047)"
     style="color:#000000;display:inline;overflow:visible;visibility:visible;opacity:1;fill:url(#radialGradient5983);fill-opacity:1;fill-rule:evenodd;stroke:none;stroke-width:1;stroke-linecap:round;stroke-linejoin:round;stroke-miterlimit:4;stroke-dasharray:none;stroke-dashoffset:0;stroke-opacity:1;marker:none;marker-start:none;marker-mid:none;marker-end:none"
     inkscape:r_cy="true"
     inkscape:r_cx="true"
     id="path5077" /><circle
     r="6.7175145"
     cy="12.493138"
     cx="12.071323"
     transform="matrix(0.308271,0,0,0.308271,23.30035,31.57234)"
     style="color:#000000;display:inline;overflow:visible;visibility:visible;opacity:1;fill:#ffffff;fill-opacity:1;fill-rule:evenodd;stroke:none;stroke-width:1;stroke-linecap:round;stroke-linejoin:round;stroke-miterlimit:4;stroke-dasharray:none;stroke-dashoffset:0;stroke-opacity:1;marker:none;marker-start:none;marker-mid:none;marker-end:none"
     inkscape:r_cy="true"
     inkscape:r_cx="true"
     id="path5079" /></g><g
   transform="matrix(-2.8138866,2.0644623,2.0644623,2.8138866,35.48831,-116.85172)"
   inkscape:r_cy="true"
   inkscape:r_cx="true"
   id="g4945"><circle
     r="6.7175145"
     cy="12.493138"
     cx="12.071323"
     transform="translate(14.95026,22.93047)"
     style="color:#000000;display:inline;overflow:visible;visibility:visible;opacity:1;fill:url(#radialGradient5985);fill-opacity:1;fill-rule:evenodd;stroke:none;stroke-width:1;stroke-linecap:round;stroke-linejoin:round;stroke-miterlimit:4;stroke-dasharray:none;stroke-dashoffset:0;stroke-opacity:1;marker:none;marker-start:none;marker-mid:none;marker-end:none"
     inkscape:r_cy="true"
     inkscape:r_cx="true"
     id="path4947" /><circle
     r="6.7175145"
     cy="12.493138"
     cx="12.071323"
     transform="matrix(0.308271,0,0,0.308271,23.30035,31.57234)"
     style="color:#000000;display:inline;overflow:visible;visibility:visible;opacity:1;fill:#ffffff;fill-opacity:1;fill-rule:evenodd;stroke:none;stroke-width:1;stroke-linecap:round;stroke-linejoin:round;stroke-miterlimit:4;stroke-dasharray:none;stroke-dashoffset:0;stroke-opacity:1;marker:none;marker-start:none;marker-mid:none;marker-end:none"
     inkscape:r_cy="true"
     inkscape:r_cx="true"
     id="path4949" /></g><g
   transform="matrix(-3.0370744,2.2286031,2.2282052,3.0376118,76.341762,-130.15747)"
   style="opacity:1"
   inkscape:r_cy="true"
   inkscape:r_cx="true"
   id="g4939"><circle
     r="6.7175145"
     cy="12.493138"
     cx="12.071323"
     transform="translate(14.95026,22.93047)"
     style="color:#000000;display:inline;overflow:visible;visibility:visible;opacity:1;fill:url(#radialGradient5989);fill-opacity:1;fill-rule:evenodd;stroke:none;stroke-width:1;stroke-linecap:round;stroke-linejoin:round;stroke-miterlimit:4;stroke-dasharray:none;stroke-dashoffset:0;stroke-opacity:1;marker:none;marker-start:none;marker-mid:none;marker-end:none"
     inkscape:r_cy="true"
     inkscape:r_cx="true"
     id="path4941" /><circle
     r="6.7175145"
     cy="12.493138"
     cx="12.071323"
     transform="matrix(0.308271,0,0,0.308271,23.30035,31.57234)"
     style="color:#000000;display:inline;overflow:visible;visibility:visible;opacity:1;fill:#ffffff;fill-opacity:1;fill-rule:evenodd;stroke:none;stroke-width:1;stroke-linecap:round;stroke-linejoin:round;stroke-miterlimit:4;stroke-dasharray:none;stroke-dashoffset:0;stroke-opacity:1;marker:none;marker-start:none;marker-mid:none;marker-end:none"
     inkscape:r_cy="true"
     inkscape:r_cx="true"
     id="path4943" /></g></svg>
